<svg id="Capa_1" enable-background="new 0 0 512 512" height="512" viewBox="0 0 512 512" width="512" xmlns="http://www.w3.org/2000/svg"><g><path d="m481 204.58v-17.707c6.924-2.956 13.213-7.922 18.213-14.589 7.601-10.134 11.787-23.375 11.787-37.284s-4.186-27.15-11.787-37.284c-5.011-6.682-11.318-11.656-18.261-14.609-.858-25.198-18.74-46.137-42.485-51.664-2.859-7.494-8.054-14.31-15.182-19.655-10.135-7.602-23.376-11.788-37.285-11.788s-27.15 4.186-37.284 11.787c-6.667 5-11.633 11.289-14.589 18.213h-26.253c-2.956-6.924-7.922-13.213-14.589-18.213-10.135-7.601-23.376-11.787-37.285-11.787s-27.15 4.186-37.284 11.787c-6.667 5-11.633 11.289-14.589 18.213h-26.253c-2.956-6.924-7.922-13.213-14.589-18.213-10.135-7.601-23.376-11.787-37.285-11.787s-27.15 4.186-37.284 11.787c-7.128 5.346-12.324 12.162-15.182 19.655-23.745 5.527-41.627 26.466-42.485 51.664-6.943 2.953-13.25 7.927-18.261 14.609-7.602 10.135-11.788 23.376-11.788 37.285s4.186 27.15 11.787 37.284c5 6.667 11.289 11.633 18.213 14.589v17.707c-17.459 6.192-30 22.865-30 42.42 0 24.813 20.187 45 45 45s45-20.187 45-45c0-19.555-12.541-36.228-30-42.42v-17.707c6.924-2.956 13.213-7.922 18.213-14.589 7.601-10.134 11.787-23.375 11.787-37.284s-4.186-27.15-11.787-37.284c-4.982-6.643-11.244-11.597-18.138-14.557.67-9.154 6.285-16.955 14.184-20.729 3.025 5.963 7.579 11.375 13.457 15.784 10.134 7.6 23.375 11.786 37.284 11.786s27.15-4.186 37.284-11.787c6.667-5 11.633-11.289 14.589-18.213h26.253c2.956 6.924 7.922 13.213 14.589 18.213 10.135 7.601 23.376 11.787 37.285 11.787s27.15-4.186 37.284-11.787c6.667-5 11.633-11.289 14.589-18.213h26.253c2.956 6.924 7.922 13.213 14.589 18.213 10.135 7.601 23.376 11.787 37.285 11.787s27.15-4.186 37.284-11.787c5.878-4.408 10.432-9.82 13.457-15.784 7.899 3.774 13.513 11.575 14.184 20.729-6.894 2.96-13.156 7.914-18.138 14.557-7.601 10.135-11.787 23.376-11.787 37.285s4.186 27.15 11.787 37.284c5 6.667 11.289 11.633 18.213 14.589v17.707c-17.459 6.192-30 22.865-30 42.42 0 24.813 20.187 45 45 45s45-20.187 45-45c0-19.555-12.541-36.228-30-42.42zm-435 57.42c-8.271 0-15-6.729-15-15s6.729-15 15-15 15 6.729 15 15-6.729 15-15 15zm0-102c-7.081 0-15-10.691-15-25s7.919-25 15-25 15 10.691 15 25-7.919 25-15 25zm80-100c-14.309 0-25-7.919-25-15s10.691-15 25-15 25 7.919 25 15-10.691 15-25 15zm130 0c-14.309 0-25-7.919-25-15s10.691-15 25-15 25 7.919 25 15-10.691 15-25 15zm130 0c-14.309 0-25-7.919-25-15s10.691-15 25-15 25 7.919 25 15-10.691 15-25 15zm80 50c7.081 0 15 10.691 15 25s-7.919 25-15 25-15-10.691-15-25 7.919-25 15-25zm0 152c-8.271 0-15-6.729-15-15s6.729-15 15-15 15 6.729 15 15-6.729 15-15 15z" fill="#607882"/><g><path d="m481 204.58v-17.707c6.924-2.956 13.213-7.922 18.213-14.589 7.601-10.134 11.787-23.375 11.787-37.284s-4.186-27.15-11.787-37.284c-5.011-6.682-11.318-11.656-18.261-14.609-.858-25.198-18.74-46.137-42.485-51.664-2.859-7.494-8.054-14.31-15.182-19.655-10.135-7.602-23.376-11.788-37.285-11.788s-27.15 4.186-37.284 11.787c-6.667 5-11.633 11.289-14.589 18.213h-26.253c-2.956-6.924-7.922-13.213-14.589-18.213-10.135-7.601-23.376-11.787-37.285-11.787v30c14.309 0 25 7.919 25 15s-10.691 15-25 15v30c13.909 0 27.15-4.186 37.284-11.787 6.667-5 11.633-11.289 14.589-18.213h26.253c2.956 6.924 7.922 13.213 14.589 18.213 10.135 7.601 23.376 11.787 37.285 11.787s27.15-4.186 37.284-11.787c5.878-4.408 10.432-9.82 13.457-15.784 7.899 3.774 13.513 11.575 14.184 20.729-6.894 2.96-13.156 7.914-18.138 14.557-7.601 10.135-11.787 23.376-11.787 37.285s4.186 27.15 11.787 37.284c5 6.667 11.289 11.633 18.213 14.589v17.707c-17.459 6.192-30 22.865-30 42.42 0 24.813 20.187 45 45 45s45-20.187 45-45c0-19.555-12.541-36.228-30-42.42zm-95-144.58c-14.309 0-25-7.919-25-15s10.691-15 25-15 25 7.919 25 15-10.691 15-25 15zm80 50c7.081 0 15 10.691 15 25s-7.919 25-15 25-15-10.691-15-25 7.919-25 15-25zm0 152c-8.271 0-15-6.729-15-15s6.729-15 15-15 15 6.729 15 15-6.729 15-15 15z" fill="#485959"/></g><g><path d="m421 337v100c0 8.284 6.716 15 15 15h60c8.284 0 15-6.716 15-15v-100c0-8.284-6.716-15-15-15h-60c-8.284 0-15 6.716-15 15z" fill="#ffb655"/><g fill="#ffd422"><path d="m421 497c0 8.284 6.716 15 15 15h60c8.284 0 15-6.716 15-15v-60h-90z"/><path d="m466 262c-24.853 0-45 20.147-45 45v30h90v-30c0-24.853-20.147-45-45-45z"/></g></g><g><path d="m1 337v100c0 8.284 6.716 15 15 15h60c8.284 0 15-6.716 15-15v-100c0-8.284-6.716-15-15-15h-60c-8.284 0-15 6.716-15 15z" fill="#ffd422"/><g fill="#fff68e"><path d="m1 497c0 8.284 6.716 15 15 15h60c8.284 0 15-6.716 15-15v-60h-90z"/><path d="m46 262c-24.853 0-45 20.147-45 45v30h90v-30c0-24.853-20.147-45-45-45z"/></g></g></g></svg>