<svg id="Capa_1" enable-background="new 0 0 512 512" height="512" viewBox="0 0 512 512" width="512" xmlns="http://www.w3.org/2000/svg"><g><path d="m403.55 431.042-257.779 33.721 197.032-72.656c7.773-2.866 11.75-11.491 8.884-19.263-2.865-7.773-11.49-11.75-19.263-8.884l-222.591 82.081 168.77-123.795c6.68-4.9 8.123-14.287 3.223-20.967-4.899-6.685-14.286-8.123-20.967-3.223l-176.049 129.134 129.134-176.05c4.9-6.68 3.459-16.063-3.223-20.967-6.68-4.9-16.067-3.457-20.967 3.223l-123.795 168.771 82.081-222.591c2.867-7.772-1.113-16.397-8.884-19.263-7.773-2.866-16.397 1.111-19.263 8.884l-72.656 197.032 33.721-257.779-29.747-3.891-51.081 390.492c-1.278 9.769 7.05 18.097 16.819 16.819l390.492-51.081z" fill="#ebebf0"/><path d="m16.949 511.87 390.492-51.081-3.891-29.747-257.779 33.721 197.032-72.656c7.773-2.866 11.75-11.49 8.884-19.263-2.865-7.773-11.49-11.75-19.263-8.884l-222.591 82.081 168.77-123.795c6.68-4.9 8.123-14.287 3.223-20.967-4.899-6.685-14.286-8.123-20.967-3.223l-176.049 129.134-80.413 80.413c3.143 3.144 7.667 4.906 12.552 4.267z" fill="#dfdef5"/><path d="m257 0c-68.113 0-132.149 26.524-180.312 74.687l-22.531 22.531c-9.589 9.589-1.75 25.901 11.729 24.403l1.852-.206c14.499-1.611 28.723 3.564 38.818 14.173 8.296 8.719 12.657 20.358 12.703 32.292l318.054-93.194c-48.163-48.162-112.199-74.686-180.313-74.686z" fill="#ff8e8e"/><path d="m512 255c0-68.113-26.524-132.149-74.687-180.312l-93.12 317.98c12.752-.076 24.944 5.046 33.892 14.45 9.606 10.096 13.949 24.106 12.41 37.956l-.116 1.04c-1.497 13.478 14.814 21.318 24.403 11.729l22.531-22.531c48.163-48.163 74.687-112.199 74.687-180.312z" fill="#ff5b5b"/><path d="m301.362 48.448c-53.884 13.471-109.567 46.897-156.792 94.122l-25.312 25.312c.007 1.884-.083 3.775-.293 5.664-1.015 9.138 6.705 16.858 15.843 15.843l.812-.09c14.499-1.611 28.723 3.564 38.818 14.173 8.296 8.719 12.657 20.359 12.703 32.293l250.172-161.078c-31.071-31.07-79.352-40.389-135.951-26.239z" fill="#a5e887"/><path d="m463.552 210.638c14.15-56.598 4.831-104.88-26.24-135.95l-161.003 250.098c12.752-.077 24.945 5.046 33.893 14.45 9.606 10.096 13.949 24.106 12.41 37.956-1.015 9.138 6.705 16.858 15.843 15.843l.812-.09c1.648-.183 3.291-.267 4.925-.277l25.238-25.238c47.225-47.225 80.651-102.908 94.122-156.792z" fill="#6fbf6b"/><path d="m413.481 167.32c31.783-47.674 39.356-77.108 23.832-92.632s-44.959-7.951-92.633 23.831c-39.261 26.174-86.22 65.926-132.227 111.933l-25.312 25.312c.007 1.884-.083 3.775-.293 5.663-1.015 9.138 6.705 16.858 15.843 15.843l.812-.09c14.499-1.611 28.723 3.564 38.818 14.173 9.606 10.096 13.949 24.106 12.41 37.956-1.015 9.138 6.705 16.858 15.843 15.843l.812-.09c1.647-.183 3.29-.267 4.925-.277l25.238-25.238c46.006-46.007 85.758-92.966 111.932-132.227z" fill="#ff8e8e"/><path d="m242.32 271.353c9.606 10.096 13.949 24.106 12.41 37.956-1.015 9.138 6.705 16.858 15.843 15.843l.812-.09c1.647-.183 3.29-.267 4.925-.277l25.238-25.239c46.007-46.007 85.759-92.966 111.933-132.227 31.783-47.674 39.356-77.108 23.832-92.632l-195.833 195.833c.279.279.567.546.84.833z" fill="#ff5b5b"/></g></svg>