<svg id="Capa_1" enable-background="new 0 0 512 512" height="512" viewBox="0 0 512 512" width="512" xmlns="http://www.w3.org/2000/svg"><g><path d="m418.655 364.793-47.118-103.66 44.921-85.135-1.374-20.25c-2.75-4.346-7.534-9.748-12.677-9.748h-195.534c-8.284 0-15 6.716-15 15v186.415l114.312 106.691c18.517 17.282 42.902 26.894 68.232 26.894h15.569l29.467-105.982c.943-3.396.661-7.016-.798-10.225z" fill="#5f5acf"/><path d="m497 436c-8.284 0-15-6.716-15-15v-78.771c0-13.785-11.215-25-25-25h-198.261c-8.284 0-15-6.716-15-15s6.716-15 15-15h198.261c30.327 0 55 24.673 55 55v78.771c0 8.284-6.716 15-15 15z" fill="#dfdef5"/><g><path d="m263.027 176 153.431-.002v-20.25c-15.178-40.617-41.996-75.361-77.556-100.476-36.376-25.692-79.22-39.272-123.902-39.272-57.429 0-111.42 22.364-152.028 62.972-40.608 40.608-62.972 94.599-62.972 152.028 0 29.352 9.204 59.437 28.14 91.972 14.3 24.574 21.86 51.555 21.86 78.028 0 8.284 6.716 15 15 15h35.846l27.303 16.382c16.157 9.694 34.436 14.702 52.969 14.702 6.872 0 13.78-.689 20.627-2.083 25.311-5.151 47.615-19.493 62.807-40.381 23.162-31.847 26.065-74.829 7.396-109.501l-23.802-44.204c-9.662-17.945-8.643-39.626 2.662-56.583z" fill="#b6baf2"/><g><path d="m263.027 176 153.431-.002v-20.25c-15.178-40.617-41.996-75.361-77.556-100.476-36.376-25.692-79.22-39.272-123.902-39.272-10.126 0-20.142.71-30 2.078v428.924c5.587-.211 11.186-.87 16.744-2.001 25.311-5.151 47.615-19.493 62.807-40.381 23.162-31.847 26.065-74.829 7.396-109.501l-23.802-44.204c-9.662-17.945-8.643-39.626 2.662-56.583z" fill="#7c84e8"/></g><path d="m437 496h-62.584c-29.231 0-57.098-10.984-78.467-30.929l-99.311-92.691c-6.057-5.652-6.384-15.145-.731-21.201 5.653-6.057 15.146-6.384 21.2-.731l99.312 92.691c15.795 14.742 36.392 22.86 57.997 22.86h62.584c24.813 0 45-20.187 45-45 0-8.284 6.716-15 15-15s15 6.716 15 15c0 41.356-33.645 75.001-75 75.001z" fill="#dfdef5"/><circle cx="185" cy="341" fill="#ff8e8e" r="45"/><g><path d="m185 296v90c24.813 0 45-20.187 45-45s-20.187-45-45-45z" fill="#ff5b5b"/></g><circle cx="185" cy="341" fill="#ebebf0" r="15"/><g><path d="m185 326v30c8.271 0 15-6.729 15-15s-6.729-15-15-15z" fill="#dfdef5"/></g></g></g></svg>