<svg id="Capa_1" enable-background="new 0 0 512 512" height="512" viewBox="0 0 512 512" width="512" xmlns="http://www.w3.org/2000/svg"><g><g><path d="m275.007 41c-30.458 0-42.609-8.101-56.68-17.48-13.675-9.117-28.939-19.278-58.32-21.88h-30c-29.381 2.602-44.645 12.763-58.32 21.88-14.071 9.379-26.221 17.48-56.68 17.48-9.737 0-16.894 9.134-14.564 18.588l36.251 147.138h216.626l36.251-147.138c2.33-9.454-4.827-18.588-14.564-18.588z" fill="#b6baf2"/><path d="m275.007 41c-30.458 0-42.609-8.101-56.68-17.48-13.675-9.117-28.939-19.278-58.32-21.88h-15v205.087h108.313l36.251-147.138c2.33-9.455-4.827-18.589-14.564-18.589z" fill="#7c84e8"/><path d="m160.007 195v-193.36c-4.636-.411-9.611-.64-15-.64s-10.364.229-15 .64v193.36c0 4.751 2.215 8.978 5.662 11.727h18.677c3.446-2.749 5.661-6.976 5.661-11.727z" fill="#607882"/><path d="m145.007 1v205.727h9.338c3.447-2.748 5.662-6.976 5.662-11.727v-193.36c-4.636-.411-9.611-.64-15-.64z" fill="#485959"/><path d="m145.007 156c-30.849 0-60.713 10.855-84.361 30.664l-23.952 20.063 52.337 212.427h111.952l52.337-212.427-23.952-20.063c-23.648-19.809-53.512-30.664-84.361-30.664z" fill="#7c84e8"/><path d="m253.32 206.727-23.952-20.063c-23.648-19.809-53.512-30.664-84.361-30.664v263.153h55.976z" fill="#5f5acf"/><path d="m145.007 356c-24.853 0-45 20.147-45 45v50c0 24.853 20.147 45 45 45 24.853 0 45-20.147 45-45v-50c0-24.853-20.147-45-45-45z" fill="#607882"/><path d="m145.007 356v140c24.853 0 45-20.147 45-45v-50c0-24.853-20.147-45-45-45z" fill="#485959"/><path d="m145.007 511c-33.084 0-60-26.916-60-60v-50c0-33.084 26.916-60 60-60s60 26.916 60 60v50c0 33.084-26.916 60-60 60zm0-140c-16.542 0-30 13.458-30 30v50c0 16.542 13.458 30 30 30s30-13.458 30-30v-50c0-16.542-13.458-30-30-30z" fill="#ebebf0"/><path d="m145.007 341v30c16.542 0 30 13.458 30 30v50c0 16.542-13.458 30-30 30v30c33.084 0 60-26.916 60-60v-50c0-33.084-26.916-60-60-60z" fill="#dfdef5"/><path d="m145.007 301c-8.284 0-15-6.716-15-15v-60c0-8.284 6.716-15 15-15s15 6.716 15 15v60c0 8.284-6.716 15-15 15z" fill="#607882"/><path d="m145.007 211v90c8.284 0 15-6.716 15-15v-60c0-8.284-6.716-15-15-15z" fill="#485959"/></g><g><path d="m496.993 471c-30.458 0-42.609 8.101-56.68 17.48-13.675 9.117-28.939 19.278-58.32 21.88h-30c-29.381-2.602-44.645-12.763-58.32-21.88-14.07-9.38-26.221-17.48-56.68-17.48-9.737 0-16.894-9.134-14.564-18.588l36.251-147.138h216.626l36.251 147.138c2.33 9.454-4.827 18.588-14.564 18.588z" fill="#b6baf2"/><path d="m496.993 471c-30.458 0-42.609 8.101-56.68 17.48-13.675 9.117-28.939 19.278-58.32 21.88h-15v-205.087h108.313l36.251 147.138c2.33 9.455-4.827 18.589-14.564 18.589z" fill="#7c84e8"/><path d="m381.993 317v193.36c-4.636.411-9.611.64-15 .64s-10.364-.229-15-.64v-193.36c0-4.751 2.215-8.978 5.662-11.727h18.677c3.446 2.749 5.661 6.976 5.661 11.727z" fill="#607882"/><path d="m366.993 511v-205.727h9.338c3.447 2.748 5.662 6.976 5.662 11.727v193.36c-4.636.411-9.611.64-15 .64z" fill="#485959"/><path d="m366.993 356c-30.849 0-60.713-10.855-84.361-30.664l-23.952-20.063 52.337-212.427h111.952l52.337 212.427-23.952 20.063c-23.648 19.809-53.513 30.664-84.361 30.664z" fill="#7c84e8"/><path d="m475.306 305.273-23.952 20.063c-23.648 19.809-53.513 30.664-84.361 30.664v-263.153h55.976z" fill="#5f5acf"/><path d="m366.993 156c-24.853 0-45-20.147-45-45v-50c0-24.853 20.147-45 45-45 24.853 0 45 20.147 45 45v50c0 24.853-20.147 45-45 45z" fill="#607882"/><path d="m366.993 156v-140c24.853 0 45 20.147 45 45v50c0 24.853-20.147 45-45 45z" fill="#485959"/><path d="m426.993 61v50c0 33.084-26.916 60-60 60s-60-26.916-60-60v-50c0-33.084 26.916-60 60-60s60 26.916 60 60zm-30 50v-50c0-16.542-13.458-30-30-30s-30 13.458-30 30v50c0 16.542 13.458 30 30 30s30-13.458 30-30z" fill="#ebebf0"/><path d="m366.993 171v-30c16.542 0 30-13.458 30-30v-50c0-16.542-13.458-30-30-30v-30c33.084 0 60 26.916 60 60v50c0 33.084-26.916 60-60 60z" fill="#dfdef5"/><path d="m366.993 211c-8.284 0-15 6.716-15 15v60c0 8.284 6.716 15 15 15s15-6.716 15-15v-60c0-8.284-6.716-15-15-15z" fill="#607882"/><path d="m366.993 301v-90c8.284 0 15 6.716 15 15v60c0 8.284-6.716 15-15 15z" fill="#485959"/></g></g></svg>