<svg id="Capa_1" enable-background="new 0 0 512 512" height="512" viewBox="0 0 512 512" width="512" xmlns="http://www.w3.org/2000/svg"><g><g><path d="m314 382h-188c-8.271 0-15-6.729-15-15v-95-30-167c0-8.284-6.716-15-15-15s-15 6.716-15 15v292c0 24.813 20.187 45 45 45h188c8.284 0 15-6.716 15-15s-6.716-15-15-15z" fill="#ebebf0"/><path d="m314 382h-118v30h118c8.284 0 15-6.716 15-15s-6.716-15-15-15z" fill="#dfdef5"/></g><path d="m311 497c-16.569 0-30-13.431-30-30v-85h-85c-24.853 0-45-20.147-45-45v-130c0-24.853 20.147-45 45-45 24.853 0 45 20.147 45 45v105h55c24.853 0 45 20.147 45 45v110c0 16.569-13.432 30-30 30z" fill="#ff8e8e"/><path d="m296 312h-55v-105c0-24.853-20.147-45-45-45v220h85v85c0 16.569 13.431 30 30 30s30-13.431 30-30v-110c0-24.853-20.147-45-45-45z" fill="#ff5b5b"/><path d="m256 242h-145v30h145c8.284 0 15-6.716 15-15s-6.716-15-15-15z" fill="#ebebf0"/><path d="m256 272c8.284 0 15-6.716 15-15s-6.716-15-15-15h-60v30z" fill="#dfdef5"/><path d="m346 512h-130c-8.284 0-15-6.716-15-15s6.716-15 15-15h130c19.299 0 35-15.701 35-35 0-8.284 6.716-15 15-15s15 6.716 15 15c0 35.841-29.159 65-65 65z" fill="#ebebf0"/><path d="m14.986 60.126c-7.856 0-14.459-6.115-14.956-14.065-.517-8.268 5.767-15.39 14.035-15.906l481.999-30.125c8.237-.522 15.39 5.766 15.906 14.035.02.315.029.628.03.939.005 7.861-6.112 14.47-14.065 14.967l-481.999 30.126c-.318.02-.635.029-.95.029z" fill="#607882"/><path d="m511.97 14.065c-.517-8.269-7.669-14.557-15.906-14.035l-300.064 18.754v30.058l301.935-18.871c7.953-.497 14.07-7.105 14.065-14.967-.001-.311-.011-.624-.03-.939z" fill="#485959"/><g><path d="m96 90c-24.813 0-45-20.187-45-45s20.186-45 45-45 45 20.187 45 45-20.187 45-45 45z" fill="#dfdef5"/><circle cx="96" cy="45" fill="#ebebf0" r="15"/></g><path d="m208.5 177c-26.192 0-47.5-21.308-47.5-47.5s21.308-47.5 47.5-47.5 47.5 21.308 47.5 47.5-21.309 47.5-47.5 47.5z" fill="#ffe4c2"/><path d="m208.5 82c-4.326 0-8.514.592-12.5 1.681v91.638c3.986 1.089 8.174 1.681 12.5 1.681 26.192 0 47.5-21.308 47.5-47.5s-21.309-47.5-47.5-47.5z" fill="#f2d1a5"/></g></svg>