<svg id="Capa_1" enable-background="new 0 0 512 512" height="512" viewBox="0 0 512 512" width="512" xmlns="http://www.w3.org/2000/svg"><g><path d="m341 15c0-8.284-6.716-15-15-15-43.955 0-84.509 14.548-117.121 39.084l-76.742 134.844c-.745 6.923-1.137 13.951-1.137 21.072v10l19 35-19 35c0 4.954 2.447 9.589 6.537 12.385l123.827 84.615h79.636v-97l-25-35 25-35z" fill="#dfdef5"/><path d="m341 15c0-8.284-6.716-15-15-15-24.673 0-48.273 4.585-70 12.946v355.388l5.364 3.666h79.636v-97l-25-35 25-35z" fill="#c1bde0"/><path d="m131 205v70h210v-70z" fill="#b6baf2"/><path d="m340.933 111.42c.602-6.328-2.85-12.349-8.616-15.025l-123.438-57.311c-42.009 31.607-70.826 79.795-76.742 134.844l197.502-49.375c6.166-1.543 10.692-6.804 11.294-13.133z" fill="#b6baf2"/><path d="m256 205h85v70h-85z" fill="#7c84e8"/><path d="m340.933 111.42c.602-6.328-2.85-12.349-8.616-15.025l-76.317-35.433v82l73.638-18.41c6.167-1.542 10.693-6.803 11.295-13.132z" fill="#7c84e8"/><path d="m59.356 512c-11.981 0-19.126-13.352-12.481-23.32 11.398-17.098 17.481-37.187 17.481-57.736v-28.944h90v15c0 52.467-42.533 95-95 95z" fill="#dfdef5"/><path d="m24.103 358.113-22.5 45c-4.987 9.974 2.266 21.708 13.416 21.708h436.981c33.137 0 60-26.863 60-60 0-8.284-6.716-15-15-15h-459.481c-5.681 0-10.875 3.21-13.416 8.292z" fill="#ebebf0"/><path d="m497 349.821h-241v75h196c33.137 0 60-26.863 60-60 0-8.284-6.716-15-15-15z" fill="#dfdef5"/></g></svg>